/* XPM */
static char * waveform3_xpm[] = {
"42 24 99 2",
"  	c #000000",
". 	c #FFFFFF",
"+ 	c #797979",
"@ 	c #111111",
"# 	c #FDFDFD",
"$ 	c #F5F5F5",
"% 	c #888888",
"& 	c #121212",
"* 	c #222222",
"= 	c #A2A2A2",
"- 	c #FCFCFC",
"; 	c #F0F0F0",
"> 	c #7C7C7C",
", 	c #0C0C0C",
"' 	c #2B2B2B",
") 	c #AEAEAE",
"! 	c #FEFEFE",
"~ 	c #E9E9E9",
"{ 	c #6F6F6F",
"] 	c #070707",
"^ 	c #363636",
"/ 	c #BBBBBB",
"( 	c #E1E1E1",
"_ 	c #636363",
": 	c #040404",
"< 	c #424242",
"[ 	c #C7C7C7",
"} 	c #D9D9D9",
"| 	c #565656",
"1 	c #010101",
"2 	c #4E4E4E",
"3 	c #D2D2D2",
"4 	c #CECECE",
"5 	c #494949",
"6 	c #020202",
"7 	c #5B5B5B",
"8 	c #DCDCDC",
"9 	c #C2C2C2",
"0 	c #3D3D3D",
"a 	c #050505",
"b 	c #686868",
"c 	c #E4E4E4",
"d 	c #B6B6B6",
"e 	c #313131",
"f 	c #090909",
"g 	c #747474",
"h 	c #ECECEC",
"i 	c #A9A9A9",
"j 	c #272727",
"k 	c #7474B7",
"l 	c #7C7CBB",
"m 	c #BABADB",
"n 	c #F8F8FB",
"o 	c #FEFEFF",
"p 	c #CCCCE5",
"q 	c #8080BD",
"r 	c #0D0D0D",
"s 	c #909090",
"t 	c #F8F8F8",
"u 	c #161616",
"v 	c #1C1C1C",
"w 	c #9A9A9A",
"x 	c #FBFBFB",
"y 	c #F3F3F3",
"z 	c #838383",
"A 	c #101010",
"B 	c #252525",
"C 	c #A7A7A7",
"D 	c #EDEDED",
"E 	c #777777",
"F 	c #0A0A0A",
"G 	c #2F2F2F",
"H 	c #B3B3B3",
"I 	c #E6E6E6",
"J 	c #6A6A6A",
"K 	c #060606",
"L 	c #3A3A3A",
"M 	c #C0C0C0",
"N 	c #DFDFDF",
"O 	c #5E5E5E",
"P 	c #474747",
"Q 	c #CCCCCC",
"R 	c #D4D4D4",
"S 	c #515151",
"T 	c #535353",
"U 	c #D6D6D6",
"V 	c #C9C9C9",
"W 	c #444444",
"X 	c #030303",
"Y 	c #606060",
"Z 	c #BDBDBD",
"` 	c #383838",
" .	c #6D6D6D",
"..	c #E7E7E7",
"+.	c #B1B1B1",
"@.	c #2D2D2D",
"#.	c #0B0B0B",
"$.	c #EEEEEE",
"%.	c #525252",
"                                                                                    ",
"  . + @                                                                             ",
"  . # $ % &                                                                         ",
"  . * = - ; > ,                                                                     ",
"  .     ' ) ! ~ { ]                                                                 ",
"  .         ^ / . ( _ :                                                             ",
"  .             < [ . } | 1                                                         ",
"  .                 2 3 . 4 5                                                       ",
"  .                   6 7 8 . 9 0                                                   ",
"  .                       a b c . d e                                               ",
"  .                           f g h ! i j                                           ",
"k . k k k k k k k k k k k k k k k l m n o p q k k k k k k k k k k k k k k k k k k k ",
"  .                                   r s - t s u                                   ",
"  .                                       v w x y z A                               ",
"  .                                           B C # D E F                           ",
"  .                                               G H . I J K                       ",
"  .                                                   L M . N O 6                   ",
"  .                                                       P Q . R S 1               ",
"  .                                                         1 T U . V W             ",
"  .                                                             X Y N . Z `         ",
"  .                                                                 ]  .... +.@.    ",
"  .                                                                     #.+ $.t F   ",
"                                                                            f %.    ",
"                                                                                    "};
