/* XPM */
static char * waveform6_xpm[] = {
"42 24 154 2",
"  	c #000000",
". 	c #030303",
"+ 	c #B0B0B0",
"@ 	c #787878",
"# 	c #020202",
"$ 	c #070707",
"% 	c #909090",
"& 	c #939393",
"* 	c #414141",
"= 	c #FFFFFF",
"- 	c #BABABA",
"; 	c #171717",
"> 	c #010101",
", 	c #DDDDDD",
"' 	c #FAFAFA",
") 	c #272727",
"! 	c #CBCBCB",
"~ 	c #E4E4E4",
"{ 	c #606060",
"] 	c #F6F6F6",
"^ 	c #E7E7E7",
"/ 	c #454545",
"( 	c #616161",
"_ 	c #4E4E4E",
": 	c #F2F2F2",
"< 	c #A3A3A3",
"[ 	c #595959",
"} 	c #5C5C5C",
"| 	c #2B2B2B",
"1 	c #D3D3D3",
"2 	c #FDFDFD",
"3 	c #868686",
"4 	c #040404",
"5 	c #494949",
"6 	c #090909",
"7 	c #DEDEDE",
"8 	c #CECECE",
"9 	c #999999",
"0 	c #C5C5C5",
"a 	c #1F1F1F",
"b 	c #222222",
"c 	c #656565",
"d 	c #717171",
"e 	c #444444",
"f 	c #565656",
"g 	c #F0F0F0",
"h 	c #F9F9F9",
"i 	c #515151",
"j 	c #7D7D7D",
"k 	c #FCFCFC",
"l 	c #EFEFEF",
"m 	c #050505",
"n 	c #101010",
"o 	c #ECECEC",
"p 	c #B8B8B8",
"q 	c #131313",
"r 	c #CDCDCD",
"s 	c #BBBBBB",
"t 	c #0C0C0C",
"u 	c #898989",
"v 	c #2F2F2F",
"w 	c #121212",
"x 	c #FEFEFE",
"y 	c #D0D0D0",
"z 	c #282828",
"A 	c #F5F5F5",
"B 	c #747474",
"C 	c #1E1E1E",
"D 	c #F7F7F7",
"E 	c #A0A0A0",
"F 	c #EAEAEA",
"G 	c #F3F3F3",
"H 	c #5F5F5F",
"I 	c #B4B4B4",
"J 	c #EEEEEE",
"K 	c #A1A1A1",
"L 	c #1D1D1D",
"M 	c #141414",
"N 	c #1A1A1A",
"O 	c #BDBDBD",
"P 	c #0D0D0D",
"Q 	c #FBFBFB",
"R 	c #8F8F8F",
"S 	c #7474B7",
"T 	c #8B8BC3",
"U 	c #FEFEFF",
"V 	c #BEBEDD",
"W 	c #8D8DC4",
"X 	c #F2F2F8",
"Y 	c #D2D2E8",
"Z 	c #7676B8",
"` 	c #B8B8DA",
" .	c #FDFDFE",
"..	c #EBEBF5",
"+.	c #8686C0",
"@.	c #C7C7E2",
"#.	c #FBFBFD",
"$.	c #7979BA",
"%.	c #B9B9B9",
"&.	c #F1F1F1",
"*.	c #0F0F0F",
"=.	c #858585",
"-.	c #D4D4D4",
";.	c #181818",
">.	c #3D3D3D",
",.	c #F8F8F8",
"'.	c #6E6E6E",
").	c #151515",
"!.	c #0B0B0B",
"~.	c #707070",
"{.	c #535353",
"].	c #9A9A9A",
"^.	c #0A0A0A",
"/.	c #B1B1B1",
"(.	c #CFCFCF",
"_.	c #060606",
":.	c #E2E2E2",
"<.	c #3C3C3C",
"[.	c #5E5E5E",
"}.	c #585858",
"|.	c #323232",
"1.	c #DADADA",
"2.	c #7C7C7C",
"3.	c #2D2D2D",
"4.	c #E1E1E1",
"5.	c #CACACA",
"6.	c #1B1B1B",
"7.	c #A4A4A4",
"8.	c #C2C2C2",
"9.	c #B2B2B2",
"0.	c #DCDCDC",
"a.	c #767676",
"b.	c #373737",
"c.	c #434343",
"d.	c #E9E9E9",
"e.	c #484848",
"f.	c #474747",
"g.	c #6F6F6F",
"h.	c #B3B3B3",
"i.	c #838383",
"j.	c #BEBEBE",
"k.	c #8A8A8A",
"l.	c #8E8E8E",
"m.	c #8C8C8C",
"n.	c #080808",
"o.	c #959595",
"p.	c #D2D2D2",
"q.	c #212121",
"r.	c #9B9B9B",
"s.	c #525252",
"t.	c #555555",
"u.	c #C6C6C6",
"v.	c #111111",
"w.	c #424242",
"                        .                                 .                         ",
"                        + @ #                         $ % &                         ",
"                      * = = - ;                     > , = ' )                       ",
"                    > ! ~ { ] ^ /                     ( _ : <                       ",
"                    [ = }   | 1 2 3 4                     5 6                       ",
"                  $ 7 8 #     6 9 = 0 a     b c                                     ",
"                  d = e           f g h i j k l m                                   ",
"                n o p               q r = = s t                 4 $                 ",
"                u 2 v                 w o x y z               t A B                 ",
"              C D E                     m 5 F G H               I J q               ",
"              K ] L           6 M           N O = < P           | Q R               ",
"S S S S S S T U V S S S S S W X Y S S S S S S Z `  ...+.S S S S S @.#.$.S S S S S S ",
"            %.&.*.      4 =.2 -.;.                >.: ,.'.>       ).!.              ",
"          / = ~.        {.= ].^.                    q /.= + w                       ",
"        # (., _.          /                           > '.,.:.<.                    ",
"        [.= }.  >                                         |.1.Q 2.#     . 3.        ",
"      4 4.5.> 6.8 <.                                        P 7.= 8.w   9.0..       ",
"      a.= b.[.G A c.                                            d ' d.e.f.= g.      ",
"    q l h.i.= j.N                                                 z y x k.- o n     ",
"    l.k | ) m.#                                                     n.o.= p.k /     ",
"  q.,.r.                                                                s.J g t.    ",
"  {.G N                                                                   a u.h *.  ",
"    v.                                                                      # w.    ",
"                                                                                    "};
