/* XPM */
static char * waveform0_xpm[] = {
"42 24 117 2",
"  	c #000000",
". 	c #010101",
"+ 	c #414141",
"@ 	c #797979",
"# 	c #7F7F7F",
"$ 	c #777777",
"% 	c #464646",
"& 	c #030303",
"* 	c #1D1D1D",
"= 	c #D2D2D2",
"- 	c #FFFFFF",
"; 	c #DFDFDF",
"> 	c #1A1A1A",
", 	c #EEEEEE",
"' 	c #F5F5F5",
") 	c #575757",
"! 	c #070707",
"~ 	c #121212",
"{ 	c #535353",
"] 	c #E6E6E6",
"^ 	c #FEFEFE",
"/ 	c #595959",
"( 	c #0B0B0B",
"_ 	c #D9D9D9",
": 	c #F1F1F1",
"< 	c #1B1B1B",
"[ 	c #040404",
"} 	c #BCBCBC",
"| 	c #FDFDFD",
"1 	c #4A4A4A",
"2 	c #A7A7A7",
"3 	c #484848",
"4 	c #060606",
"5 	c #C8C8C8",
"6 	c #FAFAFA",
"7 	c #3B3B3B",
"8 	c #4D4D4D",
"9 	c #7A7A7A",
"0 	c #D5D5D5",
"a 	c #F0F0F0",
"b 	c #090909",
"c 	c #E9E9E9",
"d 	c #D7D7D7",
"e 	c #181818",
"f 	c #BEBEBE",
"g 	c #767676",
"h 	c #383838",
"i 	c #636363",
"j 	c #676767",
"k 	c #B4B4B4",
"l 	c #BDBDBD",
"m 	c #101010",
"n 	c #171717",
"o 	c #828282",
"p 	c #303030",
"q 	c #282828",
"r 	c #FBFBFB",
"s 	c #8D8D8D",
"t 	c #141414",
"u 	c #868686",
"v 	c #0E0E0E",
"w 	c #EFEFEF",
"x 	c #AAAAAA",
"y 	c #9F9F9F",
"z 	c #F4F4F4",
"A 	c #151515",
"B 	c #050505",
"C 	c #C0C0C0",
"D 	c #7D7DBC",
"E 	c #C1C1DF",
"F 	c #8F8FC5",
"G 	c #7474B7",
"H 	c #8989C2",
"I 	c #FEFEFF",
"J 	c #BBBBDC",
"K 	c #A6A6D1",
"L 	c #FDFDFE",
"M 	c #8888C1",
"N 	c #ABABAB",
"O 	c #F6F6F6",
"P 	c #0F0F0F",
"Q 	c #D6D6D6",
"R 	c #CACACA",
"S 	c #2A2A2A",
"T 	c #434343",
"U 	c #5F5F5F",
"V 	c #A9A9A9",
"W 	c #F3F3F3",
"X 	c #B7B7B7",
"Y 	c #202020",
"Z 	c #2D2D2D",
"` 	c #444444",
" .	c #A6A6A6",
"..	c #F2F2F2",
"+.	c #DCDCDC",
"@.	c #ECECEC",
"#.	c #FCFCFC",
"$.	c #878787",
"%.	c #C5C5C5",
"&.	c #020202",
"*.	c #606060",
"=.	c #747474",
"-.	c #616161",
";.	c #080808",
">.	c #5B5B5B",
",.	c #E0E0E0",
"'.	c #252525",
").	c #212121",
"!.	c #333333",
"~.	c #F7F7F7",
"{.	c #D4D4D4",
"].	c #0D0D0D",
"^.	c #CDCDCD",
"/.	c #ADADAD",
"(.	c #0C0C0C",
"_.	c #292929",
":.	c #1F1F1F",
"              . + @ # $ % &                                                         ",
"            * = - - - - - ; +                                                       ",
"          > , ' ) !   ~ { ] ^ /                                                     ",
"        ( _ : <           [ } | 1                                                   ",
"        2 ^ 3               4 5 6 7                                                 ",
"      8 - 9                   ( 0 a *                                               ",
"    b c d &                     e a f .                                             ",
"    g - h                         i - j                                             ",
"  ( , k                           . l : m                                         n ",
"  o | p                             q r s                                       t u ",
"v w x                                 y z A                                   B C j ",
"D E F G G G G G G G G G G G G G G G G H I J G G G G G G G G G G G G G G G G G K L M ",
"                                        N O P                                 Q R   ",
"                                        S ^ o                               T - U   ",
"                                          V W n                             X c 4   ",
"                                          Y ' N                           Z ^ @     ",
"                                            9 - `                          ...(     ",
"                                            4 +.@.t                     q #.$.      ",
"                                              Z #.%.[                 &.l ..P       ",
"                                                *.- k &               =.- -.        ",
"                                                  -.- } ;.          % ^ N           ",
"                                                    >.| ,.i '.).!.9 ~.{.].          ",
"                                                      Z ^.- - - - - /.(.            ",
"                                                          _.>.U { :.                "};
