/* XPM */
static char * waveform4_xpm[] = {
"42 24 3 1",
" 	c #000000",
".	c #FFFFFF",
"+	c #7474B7",
"                                          ",
" ....................                     ",
" .                  .                     ",
" .                  .                     ",
" .                  .                     ",
" .                  .                     ",
" .                  .                     ",
" .                  .                     ",
" .                  .                     ",
" .                  .                     ",
" .                  .                     ",
"+.++++++++++++++++++.+++++++++++++++++++++",
" .                  .                     ",
" .                  .                     ",
" .                  .                     ",
" .                  .                     ",
" .                  .                     ",
" .                  .                     ",
" .                  .                     ",
" .                  .                     ",
" .                  .                     ",
" .                  .                     ",
"                    ....................  ",
"                                          "};
