/* XPM */
static char * waveform1_xpm[] = {
"42 24 115 2",
"  	c #000000",
". 	c #020202",
"+ 	c #070707",
"@ 	c #010101",
"# 	c #393939",
"$ 	c #CCCCCC",
"% 	c #181818",
"& 	c #2C2C2C",
"* 	c #EDEDED",
"= 	c #FFFFFF",
"- 	c #D4D4D4",
"; 	c #161616",
"> 	c #202020",
", 	c #E4E4E4",
"' 	c #E6E6E6",
") 	c #565656",
"! 	c #F5F5F5",
"~ 	c #D1D1D1",
"{ 	c #141414",
"] 	c #DADADA",
"^ 	c #2B2B2B",
"/ 	c #424242",
"( 	c #F6F6F6",
"_ 	c #CECECE",
": 	c #121212",
"< 	c #0E0E0E",
"[ 	c #CDCDCD",
"} 	c #F4F4F4",
"| 	c #383838",
"1 	c #464646",
"2 	c #F7F7F7",
"3 	c #CBCBCB",
"4 	c #101010",
"5 	c #040404",
"6 	c #C2C2C2",
"7 	c #F9F9F9",
"8 	c #484848",
"9 	c #494949",
"0 	c #F8F8F8",
"a 	c #080808",
"b 	c #030303",
"c 	c #AEAEAE",
"d 	c #FEFEFE",
"e 	c #515151",
"f 	c #FCFCFC",
"g 	c #C5C5C5",
"h 	c #0D0D0D",
"i 	c #9C9C9C",
"j 	c #6C6C6C",
"k 	c #FAFAFA",
"l 	c #0B0B0B",
"m 	c #888888",
"n 	c #808080",
"o 	c #555555",
"p 	c #FBFBFB",
"q 	c #BEBEBE",
"r 	c #0A0A0A",
"s 	c #737373",
"t 	c #959595",
"u 	c #595959",
"v 	c #BBBBBB",
"w 	c #090909",
"x 	c #7474B7",
"y 	c #A3A3CF",
"z 	c #FEFEFF",
"A 	c #D0D0E6",
"B 	c #7575B8",
"C 	c #A7A7D1",
"D 	c #DBDBEC",
"E 	c #7676B8",
"F 	c #4E4E4E",
"G 	c #BDBDBD",
"H 	c #575757",
"I 	c #B3B3B3",
"J 	c #060606",
"K 	c #3E3E3E",
"L 	c #C8C8C8",
"M 	c #656565",
"N 	c #B0B0B0",
"O 	c #050505",
"P 	c #303030",
"Q 	c #F0F0F0",
"R 	c #D5D5D5",
"S 	c #131313",
"T 	c #6A6A6A",
"U 	c #ACACAC",
"V 	c #242424",
"W 	c #E7E7E7",
"X 	c #E0E0E0",
"Y 	c #1C1C1C",
"Z 	c #6E6E6E",
"` 	c #A8A8A8",
" .	c #DDDDDD",
"..	c #EAEAEA",
"+.	c #272727",
"@.	c #333333",
"#.	c #676767",
"$.	c #9F9F9F",
"%.	c #C3C3C3",
"&.	c #434343",
"*.	c #7C7C7C",
"=.	c #9B9B9B",
"-.	c #535353",
";.	c #818181",
">.	c #979797",
",.	c #A2A2A2",
"'.	c #666666",
").	c #868686",
"!.	c #929292",
"~.	c #3B3B3B",
"{.	c #7A7A7A",
"].	c #8A8A8A",
"^.	c #232323",
"/.	c #505050",
"(.	c #313131",
"                                        . + @                                       ",
"                                      # $ %                                         ",
"                                    & * = - ;                                       ",
"                                  > , ' ) ! ~ {                                     ",
"                                ; ] * ^   / ( _ :                                   ",
"                              < [ } |       1 2 3 4                                 ",
"                            5 6 7 8           9 0 3 a                               ",
"                          b c d e               8 f g h                             ",
"                        @ i = j                   e k 6 l                           ",
"                        m = n                       o p q r                         ",
"                      s = t                           u f v w                       ",
"x x x x x x x x x x y z A B x x x x x x x x x x x x x x C d D E x x x x x x x x x x ",
"                  F p G b                                 H d I J                   ",
"                K ( L l                                     M d N O                 ",
"              P Q R S                                         T d U 5               ",
"            V W X Y                                             Z = ` b             ",
"          h  ...+.                                                s = c .           ",
"        4 ~ 7 @.                                                    #.= $..         ",
"      r %.0 &.                                                        *.= =.@       ",
"    O I f -.                                                            ;.= >.@     ",
"  @ ,.d '.                                                                ).= !.@   ",
"  ~.= {.                                                                    ].k ^.  ",
"    /.                                                                        (.    ",
"                                                                                    "};
