/* XPM */
static char * waveform5_xpm[] = {
"42 24 4 1",
" 	c #000000",
".	c #FFFFFF",
"+	c #7474B7",
"@	c #030303",
"                                          ",
" ............   ...   ...   ....          ",
" .        .                               ",
" .        .                               ",
" .        .                               ",
" .        .                    .          ",
" .        .                    .          ",
" .        .                               ",
" .        .                               ",
" .        .                               ",
" .        .                               ",
"+.++++++++.++++++++++++++++++++.++++++++++",
" .        .                    .          ",
" .        .                               ",
" .        .                               ",
" .        .                               ",
" .        .                               ",
" .        .                    .          ",
" .        .                    .          ",
" .        .                               ",
" .        .                               ",
" .        .                               ",
"          ..............................  ",
"@                                         "};
