/* XPM */
static char * waveform2_xpm[] = {
"42 24 36 1",
" 	c #000000",
".	c #111111",
"+	c #838383",
"@	c #FFFFFF",
"#	c #888888",
"$	c #F5F5F5",
"%	c #FDFDFD",
"&	c #0B0B0B",
"*	c #7A7A7A",
"=	c #EFEFEF",
"-	c #A2A2A2",
";	c #222222",
">	c #060606",
",	c #6D6D6D",
"'	c #E8E8E8",
")	c #FEFEFE",
"!	c #B0B0B0",
"~	c #2C2C2C",
"{	c #030303",
"]	c #5F5F5F",
"^	c #DFDFDF",
"/	c #BDBDBD",
"(	c #383838",
"_	c #010101",
":	c #525252",
"<	c #D6D6D6",
"[	c #CACACA",
"}	c #444444",
"|	c #7474B7",
"1	c #7D7DBC",
"2	c #C7C7E2",
"3	c #FAFAFC",
"4	c #BEBEDD",
"5	c #999999",
"6	c #161616",
"7	c #797979",
"                                          ",
"                                      .+@ ",
"                                    .#$%@ ",
"                                  &*=%-;@ ",
"                                >,')!~  @ ",
"                              {]^@/(    @ ",
"                            _:<@[}      @ ",
"                           }[@<:_       @ ",
"                         (/@^]{         @ ",
"                       ~!)',>           @ ",
"                     ;-%=*&             @ ",
"|||||||||||||||||||12)341|||||||||||||||@|",
"                 .#$%5.                 @ ",
"               &*=%-;                   @ ",
"             >,')!~                     @ ",
"           {]^@/(                       @ ",
"         _:<@[}                         @ ",
"        }[@<:_                          @ ",
"      (/@^]{                            @ ",
"    ~!)',>                              @ ",
"  ;-%=*&                                @ ",
" 6%$#.                                  @ ",
"  7.                                      ",
"                                          "};
